<svg width="59" height="71" viewBox="0 0 59 71" fill="none" xmlns="http://www.w3.org/2000/svg">
<path d="M33.2419 33.6795C33.2419 30.6632 35.7549 28.2179 38.8548 28.2179C41.9548 28.2179 44.4677 30.6632 44.4677 33.6795C44.4677 36.6958 41.9548 39.141 38.8548 39.141C35.7549 39.141 33.2419 36.6958 33.2419 33.6795Z" fill="white" fill-opacity="0.3"/>
<path d="M26.267 39.5142C25.7541 38.7158 24.8547 38.2308 23.8871 38.2308C22.9195 38.2308 22.0201 38.7158 21.5072 39.5142L12.1524 54.0783C11.6117 54.9201 11.583 55.9812 12.0776 56.8494C12.5722 57.7177 13.512 58.2564 14.5323 58.2564H44.4678C45.5308 58.2564 46.5025 57.672 46.9779 56.7469C47.4533 55.8217 47.3507 54.7146 46.7129 53.8872L41.1 46.6051C40.57 45.9175 39.7382 45.5128 38.8549 45.5128C37.9715 45.5128 37.1397 45.9175 36.6097 46.6051L33.4526 50.7011L26.267 39.5142Z" fill="white" fill-opacity="0.3"/>
<path fill-rule="evenodd" clip-rule="evenodd" d="M10.7903 0C5.10713 0 0.5 4.48289 0.5 10.0128V60.9872C0.5 66.5171 5.10713 71 10.7903 71H48.2097C53.8929 71 58.5 66.5171 58.5 60.9872V20.8181C58.5 19.4317 58.0353 18.0832 57.1764 16.977L45.9588 2.53066C44.7212 0.936828 42.7871 0 40.7341 0H10.7903ZM6.1129 10.0128C6.1129 7.49922 8.20705 5.46154 10.7903 5.46154H37.9194V21.4713C37.9194 22.9795 39.1758 24.2021 40.7258 24.2021H52.8871V60.9872C52.8871 63.5008 50.7929 65.5385 48.2097 65.5385H10.7903C8.20705 65.5385 6.1129 63.5008 6.1129 60.9872V10.0128Z" fill="white" fill-opacity="0.3"/>
</svg>
