<svg width="15" height="20" viewBox="0 0 15 20" fill="none" xmlns="http://www.w3.org/2000/svg">
<path d="M12.7503 0.000244141C14.2689 0.000402517 15.0003 1.23156 15.0003 2.75024V14.5022H11.0003C10.4481 14.5022 10.0004 14.95 10.0003 15.5022V19.2502C10 19.388 9.88807 19.5001 9.75029 19.5002H2.75029C1.23166 19.5002 0.000545423 18.2688 0.000289917 16.7502V2.75024C0.000289917 1.23146 1.23151 0.000244141 2.75029 0.000244141H12.7503ZM14.4476 15.5022C14.8154 15.5022 14.9881 15.9571 14.7132 16.2014L11.6653 18.9104C11.4074 19.1395 11.0003 18.9566 11.0003 18.6116V16.5022C11.0004 15.95 11.4481 15.5022 12.0003 15.5022H14.4476ZM5.3997 3.99927C5.0896 3.99889 4.8012 4.15445 4.63115 4.40942L4.56572 4.52466L3.63213 6.48755C3.51466 6.73483 3.51431 7.0222 3.63115 7.26978L3.67998 7.35864C3.80398 7.56005 4.00165 7.7068 4.23174 7.76685L6.35283 8.31958L6.48174 8.34399C6.78473 8.37839 7.09009 8.26095 7.29131 8.02271C7.52179 7.74959 7.57313 7.36721 7.42021 7.04321L7.29424 6.77759C8.77527 6.71844 10.1496 7.6772 10.5472 9.14478C10.993 10.7906 10.0511 12.4879 8.42021 13.009L8.26006 13.0559C6.52951 13.5144 4.75813 12.4968 4.29716 10.7961C4.23421 10.5639 4.01672 10.4136 3.78545 10.427L3.68584 10.4436L2.87236 10.6584C2.74399 10.6925 2.63425 10.777 2.56767 10.8918C2.50118 11.007 2.48317 11.1443 2.51787 11.2727C3.24525 13.9579 6.03114 15.544 8.73466 14.8274L8.98466 14.7542C11.5383 13.9381 13.0307 11.2706 12.3255 8.66724C11.6303 6.10219 9.05665 4.54189 6.47099 5.03247L6.23174 4.52661L6.16728 4.4104C6.0221 4.19157 5.78918 4.04646 5.53056 4.00903L5.3997 3.99927ZM8.60674 14.344L8.37724 14.3987C8.45345 14.3825 8.52962 14.3642 8.60576 14.344L8.94072 14.2424C8.83162 14.2802 8.72019 14.3139 8.60674 14.344ZM9.99052 12.6526L9.85674 12.7727C9.90439 12.7321 9.95013 12.6896 9.99541 12.6467C9.99357 12.6485 9.99236 12.6509 9.99052 12.6526ZM3.81377 10.927L3.00029 11.1428V11.1418L3.81377 10.926V10.927ZM11.8987 9.02466C11.9048 9.0528 11.9079 9.08147 11.9134 9.10962C11.8954 9.01823 11.8758 8.92655 11.8519 8.83521L11.8987 9.02466ZM4.054 6.96899C4.06057 6.99867 4.07009 7.02787 4.0833 7.05591L4.05302 6.96899C4.04654 6.93943 4.04413 6.90925 4.04424 6.87915L4.054 6.96899ZM6.23662 5.59692L6.46513 5.54224C6.47707 5.53971 6.48933 5.53881 6.50127 5.53638C6.41315 5.55435 6.32465 5.57359 6.23662 5.59692ZM5.17216 4.5647C5.15577 4.575 5.14013 4.58641 5.12529 4.59888L5.17216 4.56372C5.18868 4.55338 5.20608 4.54437 5.22392 4.53638L5.17216 4.5647Z" fill="white"/>
</svg>
