<svg width="16" height="20" viewBox="0 0 16 20" fill="none" xmlns="http://www.w3.org/2000/svg">
<path d="M10.752 0C11.3006 0 11.8177 0.257569 12.1484 0.695312L15.1465 4.66309C15.3759 4.96683 15.5 5.33715 15.5 5.71777V16.75C15.5 18.2688 14.2688 19.5 12.75 19.5H2.75C1.23122 19.5 0 18.2688 0 16.75V2.75C0 1.23122 1.23122 0 2.75 0H10.752ZM5.49414 4.5C5.18401 4.49962 4.89563 4.65514 4.72559 4.91016L4.66016 5.02539L3.72656 6.98828C3.60909 7.23557 3.60873 7.52292 3.72559 7.77051L3.77441 7.85938C3.89842 8.06069 4.09616 8.20755 4.32617 8.26758L6.44727 8.82031L6.57617 8.84473C6.87912 8.87906 7.18456 8.76164 7.38574 8.52344C7.58745 8.28445 7.6521 7.96192 7.5625 7.66797L7.51465 7.54395L7.38867 7.27832C8.86969 7.21923 10.2441 8.17792 10.6416 9.64551L10.6797 9.80469C11.0254 11.3994 10.093 13.0054 8.51465 13.5098L8.35449 13.5566C6.62398 14.0151 4.85261 12.9975 4.3916 11.2969C4.32869 11.0646 4.11115 10.9144 3.87988 10.9277L3.78027 10.9443L2.9668 11.1592C2.83839 11.1932 2.72868 11.2776 2.66211 11.3926C2.5956 11.5078 2.57757 11.645 2.6123 11.7734C3.33973 14.4586 6.12562 16.0447 8.8291 15.3281L9.0791 15.2549C11.5502 14.4651 13.0276 11.9421 12.4814 9.4209L12.4199 9.16797C11.7248 6.6029 9.15109 5.04268 6.56543 5.5332L6.32617 5.02734L6.26172 4.91113C6.11657 4.69235 5.88355 4.54722 5.625 4.50977L5.49414 4.5ZM9.13477 14.7051C8.99388 14.7576 8.84965 14.8054 8.70117 14.8447L8.47168 14.8994C8.5479 14.8833 8.62405 14.8649 8.7002 14.8447C8.84889 14.8053 8.99369 14.7577 9.13477 14.7051ZM11.2158 10.9795L11.1865 11.1562C11.201 11.0807 11.212 11.0044 11.2217 10.9277C11.2195 10.945 11.2182 10.9623 11.2158 10.9795ZM11.9932 9.52539C12.0175 9.6377 12.0366 9.75011 12.0518 9.8623L11.9922 9.52539L11.9375 9.29883L11.9932 9.52539ZM11.3857 8.05078L11.502 8.24316C11.4649 8.17813 11.4258 8.11451 11.3857 8.05176L11.2617 7.86621C11.3046 7.92649 11.3457 7.98816 11.3857 8.05078ZM6.64746 6.87793L7.03516 7.7002L6.64648 6.87793L6.83105 6.83887C6.76984 6.85023 6.70866 6.86343 6.64746 6.87793ZM6.46191 6.06641C6.49458 6.05874 6.52689 6.0499 6.55957 6.04297L6.78906 6C6.67993 6.01749 6.57109 6.04079 6.46191 6.06641Z" fill="white"/>
</svg>
